Coordinates
version=1
nRows=11
nColumns=63
inDegrees=yes

Units are S.I. units (second, meters, Newtons, ...)
If the header above contains a line with 'inDegrees', this indicates whether rotational values are in degrees (yes) or radians (no).

endheader
time	pelvis_tilt	pelvis_list	pelvis_rotation	pelvis_tx	pelvis_ty	pelvis_tz	hip_flexion_r	hip_adduction_r	hip_rotation_r	knee_angle_r	knee_angle_r_beta	ankle_angle_r	subtalar_angle_r	mtp_angle_r	hip_flexion_l	hip_adduction_l	hip_rotation_l	knee_angle_l	knee_angle_l_beta	ankle_angle_l	subtalar_angle_l	mtp_angle_l	L5_S1_Flex_Ext	L5_S1_Lat_Bending	L5_S1_axial_rotation	L4_L5_Flex_Ext	L4_L5_Lat_Bending	L4_L5_axial_rotation	L3_L4_Flex_Ext	L3_L4_Lat_Bending	L3_L4_axial_rotation	L2_L3_Flex_Ext	L2_L3_Lat_Bending	L2_L3_axial_rotation	L1_L2_Flex_Ext	L1_L2_Lat_Bending	L1_L2_axial_rotation	L1_T12_Flex_Ext	L1_T12_Lat_Bending	L1_T12_axial_rotation	Abs_r3	Abs_r2	Abs_r1	Abs_t1	Abs_t2	neck_flexion	neck_bending	neck_rotation	arm_flex_r	arm_add_r	arm_rot_r	elbow_flex_r	pro_sup_r	wrist_flex_r	wrist_dev_r	arm_flex_l	arm_add_l	arm_rot_l	elbow_flex_l	pro_sup_l	wrist_flex_l	wrist_dev_l
      5.15217391	     -0.08993047	      5.59368801	     81.54917816	      0.27342612	      0.78119395	      0.86928834	     -9.22507882	      2.23797630	     23.10001826	      3.35498390	      0.05855552	     35.71559820	     -2.21833592	      0.00000000	     -3.96983637	     -2.39977548	     -4.45609196	     19.50551997	      0.34043555	     43.95241147	     -8.15118316	      0.00000000	      0.09357148	     -0.17032168	     -3.48524495	      0.17377160	     -0.22652784	     -3.70307276	      0.15372859	     -0.41412014	     -3.70307276	      0.10694285	     -0.41412014	     -3.04958933	      0.08689048	     -0.34731998	     -2.83176152	      0.05346675	     -0.26382829	     -2.61393371	      0.66837176	     -1.92671294	    -19.38388684	      0.00000000	      0.00000000	     22.72664387	      2.44063631	    -19.90286589	    474.74743168	    -55.59373833	    384.91817249	     71.09901447	     77.85138359	     24.83140089	     17.69725558	    106.30247994	    -18.74229376	     26.59509682	     70.83675965	     87.52419052	      5.59819340	     16.77350416
      5.17391304	     -0.01758019	      5.59900608	     80.20285877	      0.27521225	      0.78118740	      0.86855619	     -9.16214914	      2.11888564	     23.40684671	      4.05189072	      0.07071883	     35.68039725	     -1.58743767	      0.00000000	     -4.42825776	     -2.31782276	     -5.44342562	     19.32684409	      0.33731706	     43.40945280	     -8.67303330	      0.00000000	      0.09028177	     -0.20535031	     -3.59034350	      0.16766228	     -0.27311591	     -3.81473997	      0.14832393	     -0.49928875	     -3.81473997	      0.10318304	     -0.49928875	     -3.14155056	      0.08383566	     -0.41875036	     -2.91715409	      0.05158701	     -0.31808763	     -2.69275762	      0.64487369	     -2.32296380	    -19.96841343	      0.00000000	      0.00000000	     22.41119955	      1.81527534	    -21.62749453	    476.01256328	    -53.11972357	    388.67283100	     73.82335697	     78.68836133	     22.85176751	     16.75678469	    108.95944161	    -18.62320478	     29.60030131	     73.14146730	     87.62977015	      3.65529124	     22.29452864
      5.19565217	      0.24004836	      5.51100147	     78.83362197	      0.27650696	      0.78090089	      0.86750621	     -8.98547369	      2.16730323	     23.01910013	      4.86203945	      0.08485860	     35.86495639	     -0.00422033	      0.00000000	     -4.80581453	     -2.40991398	     -6.45371676	     19.11899289	      0.33368938	     43.19792465	     -8.86451792	      0.00000000	      0.10501911	     -0.20403410	     -3.61714248	      0.19503099	     -0.27136536	     -3.84321389	      0.17253590	     -0.49608852	     -3.84321389	      0.12002634	     -0.49608852	     -3.16499967	      0.09752075	     -0.41606634	     -2.93892827	      0.06000792	     -0.31604883	     -2.71285686	      0.75014101	     -2.30807458	    -20.11746134	      0.00000000	      0.00000000	     21.68791337	      1.17383924	    -23.23162649	    479.83772666	    -52.35411537	    397.80680015	     76.73424975	     79.72986371	     15.39194714	     14.23872342	    110.78542520	    -17.83359597	     31.48009710	     74.68834827	     87.74256734	      1.67405233	     25.77094089
      5.21739130	      0.33803138	      5.71721266	     77.60781307	      0.27778851	      0.78081129	      0.86690658	     -9.15516495	      1.99731678	     23.03693714	      5.42439231	      0.09467351	     35.98044478	      1.00235647	      0.00000000	     -5.33799750	     -2.27554571	     -7.21753829	     18.97125589	      0.33111088	     43.08357685	     -9.07507422	      0.00000000	      0.09516168	     -0.22333121	     -3.60783290	      0.17672475	     -0.29703051	     -3.83332246	      0.15634112	     -0.54300750	     -3.83332246	      0.10876028	     -0.54300750	     -3.15685379	      0.08836713	     -0.45541700	     -2.93136423	      0.05437538	     -0.34594004	     -2.70587468	      0.67973035	     -2.52636731	    -20.06568425	      0.00000000	      0.00000000	     20.59684296	      0.56488703	    -23.77013867	    483.76125446	    -51.22209384	    405.86273360	     79.74738444	     81.84613231	      9.03724624	     14.86960978	    111.88372089	    -16.71373534	     32.02819638	     75.70279444	     87.56287655	      1.94635076	     28.20261495
      5.23913043	      0.58083623	      6.07251988	     76.56475760	      0.27886796	      0.78088183	      0.86637441	     -9.55918700	      1.93519928	     23.07118805	      5.81172722	      0.10143378	     36.03295214	      1.96479736	      0.00000000	     -5.99929426	     -2.25922017	     -7.75380539	     18.88291234	      0.32956899	     43.12970586	     -9.27062955	      0.00000000	      0.07939428	     -0.22263004	     -3.55369377	      0.14744312	     -0.29609796	     -3.77579963	      0.13043687	     -0.54130268	     -3.77579963	      0.09073973	     -0.54130268	     -3.10948205	      0.07372553	     -0.45398718	     -2.88737619	      0.04536589	     -0.34485394	     -2.66527033	      0.56710542	     -2.51843556	    -19.76457863	      0.00000000	      0.00000000	     19.20904503	      0.05067640	    -23.04143427	    488.31328499	    -50.07018800	    414.34433644	     82.28841571	     83.27943157	      3.52337337	     15.91536946	    112.15019642	    -15.26443121	     31.78287959	     76.51206450	     87.02034137	      2.78762773	     28.72824784
      5.26086957	      0.77667032	      6.62964882	     75.77682326	      0.27951608	      0.78124998	      0.86620898	    -10.22270469	      1.78048946	     23.23880267	      5.94087196	      0.10368778	     36.01043789	      2.51292003	      0.00000000	     -6.82375006	     -2.14427952	     -8.09618313	     18.76305256	      0.32747704	     42.99758205	     -9.56929414	      0.00000000	      0.04553775	     -0.22735395	     -3.56601910	      0.08456816	     -0.30238075	     -3.78889529	      0.07481397	     -0.55278839	     -3.78889529	      0.05204510	     -0.55278839	     -3.12026671	      0.04228636	     -0.46362017	     -2.89739052	      0.02602027	     -0.35217127	     -2.67451432	      0.32527161	     -2.57187334	    -19.83312842	      0.00000000	      0.00000000	     18.11732682	      0.33076321	    -21.10265218	    491.82608034	    -48.29421375	    420.79127837	     84.06072718	     84.15427907	     -0.08422202	     16.74813520	    112.30500193	    -13.97110024	     31.81082351	     77.50182511	     85.83681107	      3.47318923	     28.02056912
      5.28260870	      0.84309719	      7.38909220	     75.27822012	      0.28032428	      0.78204901	      0.86630040	    -11.06679202	      1.51917862	     23.55603684	      5.98341029	      0.10443021	     35.94652232	      2.65656368	      0.00000000	     -7.84515057	     -1.89855896	     -8.25050591	     18.50301774	      0.32293858	     42.70633051	     -9.78565630	      0.00000000	      0.00320728	     -0.26602866	     -3.72268476	      0.00595624	     -0.35381811	     -3.95535256	      0.00526924	     -0.64682208	     -3.95535256	      0.00366560	     -0.64682208	     -3.25734917	      0.00297828	     -0.54248564	     -3.02468137	      0.00183264	     -0.41207839	     -2.79201357	      0.02290927	     -3.00936937	    -20.70445583	      0.00000000	      0.00000000	     17.18651130	      2.03310461	    -18.64704489	    492.81418489	    -45.81674198	    423.32096220	     84.82565306	     84.96724182	     -0.79671795	     17.19171093	    112.89834939	    -13.04513941	     32.96743044	     78.10788231	     84.41071181	      4.09171661	     25.82276581
      5.30434783	      1.17433767	      7.90566739	     74.66466216	      0.28031438	      0.78268989	      0.86635257	    -11.79170113	      1.54553814	     25.30240496	      5.83268310	      0.10179952	     35.36228676	      1.03174319	      0.00000000	     -8.58395015	     -1.84800224	     -8.00811030	     18.40014532	      0.32114312	     42.43757536	    -10.80640866	      0.00000000	     -0.01876087	     -0.22667951	     -3.89800182	     -0.03484080	     -0.30148375	     -4.14162693	     -0.03082223	     -0.55114857	     -4.14162693	     -0.02144179	     -0.55114857	     -3.41075159	     -0.01742134	     -0.46224487	     -3.16712648	     -0.01071996	     -0.35112657	     -2.92350136	     -0.13400699	     -2.56424400	    -21.67951671	      0.00000000	      0.00000000	     16.90327698	      3.17213261	    -14.31082891	    493.61242354	    -42.76766080	    425.75287714	     84.71832740	     85.50636310	     -3.89801360	     15.80335030	    113.25425960	    -13.28249279	     40.99779187	     81.07159809	      7.53750790	    -18.66220290	      3.54429299
      5.32608696	      1.30182223	      8.47442228	     74.12816790	      0.28067750	      0.78358283	      0.86644796	    -12.46977005	      1.35835401	     26.33618175	      5.74982765	      0.10035342	     34.98065697	      0.38219413	      0.00000000	     -9.38230788	     -1.61844285	     -7.87264576	     18.10668010	      0.31602118	     42.16126564	    -11.53756213	      0.00000000	     -0.03707327	     -0.22832510	     -4.15377452	     -0.06884877	     -0.30367238	     -4.41338543	     -0.06090768	     -0.55514964	     -4.41338543	     -0.04237104	     -0.55514964	     -3.63455271	     -0.03442624	     -0.46560054	     -3.37494180	     -0.02118367	     -0.35367557	     -3.11533089	     -0.26481066	     -2.58285916	    -23.10204777	      0.00000000	      0.00000000	     16.31033793	      4.85136831	    -10.50129847	    492.49470483	    -39.53552149	    424.98204227	     84.02280211	     86.21759027	     -4.85279630	     14.39959350	    114.33880671	    -12.67927473	     43.79285310	     80.75256761	      2.39956841	    -14.56206122	     -3.55116720
      5.34782609	      1.37498980	      9.07179786	     73.27197440	      0.28159180	      0.78449682	      0.86676849	    -13.12118308	      1.02436311	     27.22227001	      5.70030939	      0.09948917	     34.70903783	      0.35669604	      0.00000000	    -10.25559035	     -1.26489094	     -8.09572283	     17.68775725	      0.30870960	     41.90006018	    -12.22507156	      0.00000000	     -0.07158714	     -0.24146407	     -4.39086731	     -0.13294448	     -0.32114722	     -4.66529651	     -0.11761052	     -0.58709575	     -4.66529651	     -0.08181695	     -0.58709575	     -3.84200889	     -0.06647582	     -0.49239354	     -3.56757969	     -0.04090489	     -0.37402785	     -3.29315048	     -0.51133981	     -2.73148988	    -24.42068671	      0.00000000	      0.00000000	     16.01967364	      6.67861523	     -6.76407809	    490.81287796	    -36.39684729	    422.93192635	     83.15679225	     87.12693534	     -5.72580567	     13.16476672	    115.95748137	    -12.51241604	     46.31999298	     80.25424505	      2.30723571	    -13.42861601	     -5.82831490
      5.36956522	      1.20547370	      9.61097367	     72.94831257	      0.28233056	      0.78528569	      0.86730803	    -13.69097711	      0.60820516	     28.03701064	      5.59707153	      0.09768733	     34.39640557	     -0.20557233	      0.00000000	    -10.86928298	     -0.81878392	     -7.89951947	     17.33183934	      0.30249766	     41.73146552	    -12.69316958	      0.00000000	     -0.08069850	     -0.28872024	     -4.72368492	     -0.14986519	     -0.38399792	     -5.01891523	     -0.13257957	     -0.70199440	     -5.01891523	     -0.09223032	     -0.70199440	     -4.13322431	     -0.07493663	     -0.58875832	     -3.83799400	     -0.04611112	     -0.44722766	     -3.54276369	     -0.57642133	     -3.26606112	    -26.27171842	      0.00000000	      0.00000000	     15.29615971	      7.82410168	     -3.46126212	    488.71011604	    -33.47556021	    419.94951250	     82.01703797	     88.01586385	     -5.27573695	     12.24352760	    117.56472399	    -13.04141415	     49.10756457	     79.87864285	      2.56707739	    -13.14471989	     -7.98460804
